<?xml version="1.0" encoding="UTF-8" standalone="no"?>
<!DOCTYPE svg PUBLIC "-//W3C//DTD SVG 1.1//EN"
 "http://www.w3.org/Graphics/SVG/1.1/DTD/svg11.dtd">
<!-- Generated by graphviz version 2.43.0 (0)
 -->
<!-- Title: G Pages: 1 -->
<svg width="1114pt" height="1211pt"
 viewBox="0.00 0.00 1113.69 1210.67" xmlns="http://www.w3.org/2000/svg" xmlns:xlink="http://www.w3.org/1999/xlink">
<g id="graph0" class="graph" transform="scale(1 1) rotate(0) translate(4 1206.67)">
<title>G</title><style>.edge>path:hover{stroke-width:8}</style>
<polygon fill="white" stroke="transparent" points="-4,4 -4,-1206.67 1109.69,-1206.67 1109.69,4 -4,4"/>
<!-- h5py -->
<g id="node1" class="node">
<title>h5py</title><style>.edge>path:hover{stroke-width:8}</style>
<ellipse fill="#b83d3d" stroke="black" cx="91.63" cy="-992.68" rx="27" ry="18"/>
<text text-anchor="middle" x="91.63" y="-990.18" font-family="Helvetica,sans-Serif" font-size="10.00" fill="#ffffff">h5py</text>
</g>
<!-- synaptictrack_beam_beam_data_io -->
<g id="node16" class="node">
<title>synaptictrack_beam_beam_data_io</title><style>.edge>path:hover{stroke-width:8}</style>
<polygon fill="blue" stroke="black" points="150.63,-768.77 64.63,-768.77 64.63,-727.77 150.63,-727.77 150.63,-768.77"/>
<text text-anchor="middle" x="107.63" y="-756.77" font-family="Helvetica,sans-Serif" font-size="10.00" fill="white">synaptictrack.</text>
<text text-anchor="middle" x="107.63" y="-745.77" font-family="Helvetica,sans-Serif" font-size="10.00" fill="white">beam.</text>
<text text-anchor="middle" x="107.63" y="-734.77" font-family="Helvetica,sans-Serif" font-size="10.00" fill="white">beam_data_io</text>
</g>
<!-- h5py&#45;&gt;synaptictrack_beam_beam_data_io -->
<g id="edge1" class="edge">
<title>h5py&#45;&gt;synaptictrack_beam_beam_data_io</title><style>.edge>path:hover{stroke-width:8}</style>
<path fill="none" stroke="black" d="M106.4,-977.55C121.16,-962.05 142.26,-935.6 146.63,-907.48"/>
<path fill="none" stroke="black" d="M146.63,-905.48C153.62,-860.62 136.04,-809.8 122.26,-778.65"/>
<polygon fill="#b83d3d" stroke="black" points="125.3,-776.88 117.95,-769.25 118.94,-779.8 125.3,-776.88"/>
</g>
<!-- h5py_h5 -->
<g id="node2" class="node">
<title>h5py_h5</title><style>.edge>path:hover{stroke-width:8}</style>
<ellipse fill="#c24747" stroke="black" cx="121.63" cy="-1075.67" rx="31.58" ry="18"/>
<text text-anchor="middle" x="121.63" y="-1073.17" font-family="Helvetica,sans-Serif" font-size="10.00" fill="#ffffff">h5py.h5</text>
</g>
<!-- h5py_h5&#45;&gt;h5py -->
<g id="edge2" class="edge">
<title>h5py_h5&#45;&gt;h5py</title><style>.edge>path:hover{stroke-width:8}</style>
<path fill="none" stroke="black" d="M115.42,-1057.89C111.36,-1046.92 105.97,-1032.37 101.34,-1019.89"/>
<polygon fill="#c24747" stroke="black" points="104.6,-1018.6 97.84,-1010.44 98.03,-1021.03 104.6,-1018.6"/>
</g>
<!-- h5py_h5&#45;&gt;synaptictrack_beam_beam_data_io -->
<g id="edge3" class="edge">
<title>h5py_h5&#45;&gt;synaptictrack_beam_beam_data_io</title><style>.edge>path:hover{stroke-width:8}</style>
<path fill="none" stroke="black" d="M124.65,-1057.64C129.88,-1027.47 140.65,-962.62 146.63,-907.48"/>
</g>
<!-- matplotlib -->
<g id="node3" class="node">
<title>matplotlib</title><style>.edge>path:hover{stroke-width:8}</style>
<polygon fill="blue" stroke="black" points="670.13,-766.27 603.13,-766.27 603.13,-730.27 670.13,-730.27 670.13,-766.27"/>
<text text-anchor="middle" x="636.63" y="-745.77" font-family="Helvetica,sans-Serif" font-size="10.00" fill="white">matplotlib</text>
</g>
<!-- synaptictrack_visualizations_plot_phasespace -->
<g id="node28" class="node">
<title>synaptictrack_visualizations_plot_phasespace</title><style>.edge>path:hover{stroke-width:8}</style>
<polygon fill="blue" stroke="black" points="701.63,-539.28 603.63,-539.28 603.63,-498.28 701.63,-498.28 701.63,-539.28"/>
<text text-anchor="middle" x="652.63" y="-527.28" font-family="Helvetica,sans-Serif" font-size="10.00" fill="white">synaptictrack.</text>
<text text-anchor="middle" x="652.63" y="-516.28" font-family="Helvetica,sans-Serif" font-size="10.00" fill="white">visualizations.</text>
<text text-anchor="middle" x="652.63" y="-505.28" font-family="Helvetica,sans-Serif" font-size="10.00" fill="white">plot_phasespace</text>
</g>
<!-- matplotlib&#45;&gt;synaptictrack_visualizations_plot_phasespace -->
<g id="edge4" class="edge">
<title>matplotlib&#45;&gt;synaptictrack_visualizations_plot_phasespace</title><style>.edge>path:hover{stroke-width:8}</style>
<path fill="none" stroke="black" d="M644.63,-664.28C643.77,-632.98 648.27,-625.29 652.63,-594.28"/>
</g>
<!-- synaptictrack_visualizations_plot_scanner -->
<g id="node29" class="node">
<title>synaptictrack_visualizations_plot_scanner</title><style>.edge>path:hover{stroke-width:8}</style>
<polygon fill="blue" stroke="black" points="616.13,-462.28 529.13,-462.28 529.13,-421.28 616.13,-421.28 616.13,-462.28"/>
<text text-anchor="middle" x="572.63" y="-450.28" font-family="Helvetica,sans-Serif" font-size="10.00" fill="white">synaptictrack.</text>
<text text-anchor="middle" x="572.63" y="-439.28" font-family="Helvetica,sans-Serif" font-size="10.00" fill="white">visualizations.</text>
<text text-anchor="middle" x="572.63" y="-428.28" font-family="Helvetica,sans-Serif" font-size="10.00" fill="white">plot_scanner</text>
</g>
<!-- matplotlib&#45;&gt;synaptictrack_visualizations_plot_scanner -->
<g id="edge5" class="edge">
<title>matplotlib&#45;&gt;synaptictrack_visualizations_plot_scanner</title><style>.edge>path:hover{stroke-width:8}</style>
<path fill="none" stroke="black" d="M639.57,-730.25C642.1,-713.89 645.25,-688.45 644.63,-666.28"/>
<path fill="none" stroke="black" d="M644.63,-664.28C643.69,-630.44 625.52,-626.33 614.63,-594.28"/>
</g>
<!-- matplotlib_gridspec -->
<g id="node4" class="node">
<title>matplotlib_gridspec</title><style>.edge>path:hover{stroke-width:8}</style>
<polygon fill="blue" stroke="black" points="702.63,-924.48 632.63,-924.48 632.63,-888.48 702.63,-888.48 702.63,-924.48"/>
<text text-anchor="middle" x="667.63" y="-909.48" font-family="Helvetica,sans-Serif" font-size="10.00" fill="white">matplotlib.</text>
<text text-anchor="middle" x="667.63" y="-898.48" font-family="Helvetica,sans-Serif" font-size="10.00" fill="white">gridspec</text>
</g>
<!-- matplotlib_pyplot -->
<g id="node5" class="node">
<title>matplotlib_pyplot</title><style>.edge>path:hover{stroke-width:8}</style>
<polygon fill="blue" stroke="black" points="702.63,-849.26 632.63,-849.26 632.63,-813.26 702.63,-813.26 702.63,-849.26"/>
<text text-anchor="middle" x="667.63" y="-834.26" font-family="Helvetica,sans-Serif" font-size="10.00" fill="white">matplotlib.</text>
<text text-anchor="middle" x="667.63" y="-823.26" font-family="Helvetica,sans-Serif" font-size="10.00" fill="white">pyplot</text>
</g>
<!-- matplotlib_gridspec&#45;&gt;matplotlib_pyplot -->
<g id="edge6" class="edge">
<title>matplotlib_gridspec&#45;&gt;matplotlib_pyplot</title><style>.edge>path:hover{stroke-width:8}</style>
<path fill="none" stroke="black" d="M667.63,-888.12C667.63,-879.65 667.63,-869.24 667.63,-859.72"/>
<polygon fill="blue" stroke="black" points="671.13,-859.49 667.63,-849.49 664.13,-859.49 671.13,-859.49"/>
</g>
<!-- matplotlib_gridspec&#45;&gt;synaptictrack_visualizations_plot_phasespace -->
<g id="edge7" class="edge">
<title>matplotlib_gridspec&#45;&gt;synaptictrack_visualizations_plot_phasespace</title><style>.edge>path:hover{stroke-width:8}</style>
<path fill="none" stroke="black" d="M568.63,-664.28C585.91,-618.86 644.16,-642.13 652.63,-594.28"/>
<path fill="none" stroke="black" d="M652.63,-592.28C655.11,-578.29 655.4,-562.55 654.96,-549.32"/>
<polygon fill="blue" stroke="black" points="658.45,-549.14 654.47,-539.33 651.46,-549.49 658.45,-549.14"/>
</g>
<!-- matplotlib_gridspec&#45;&gt;synaptictrack_visualizations_plot_scanner -->
<g id="edge8" class="edge">
<title>matplotlib_gridspec&#45;&gt;synaptictrack_visualizations_plot_scanner</title><style>.edge>path:hover{stroke-width:8}</style>
<path fill="none" stroke="black" d="M650.91,-888.21C615.08,-849.03 536.68,-750.3 568.63,-666.28"/>
<path fill="none" stroke="black" d="M568.63,-664.28C580.1,-601.05 575.34,-584.02 573.63,-519.78"/>
<path fill="none" stroke="black" d="M573.63,-517.78C571.45,-503.04 571.02,-486.5 571.21,-472.7"/>
<polygon fill="blue" stroke="black" points="574.72,-472.4 571.48,-462.32 567.72,-472.23 574.72,-472.4"/>
</g>
<!-- matplotlib_pyplot&#45;&gt;matplotlib -->
<g id="edge9" class="edge">
<title>matplotlib_pyplot&#45;&gt;matplotlib</title><style>.edge>path:hover{stroke-width:8}</style>
<path fill="none" stroke="black" d="M661.06,-813.09C656.95,-802.35 651.57,-788.29 646.91,-776.11"/>
<polygon fill="blue" stroke="black" points="650.04,-774.51 643.2,-766.42 643.5,-777.01 650.04,-774.51"/>
</g>
<!-- matplotlib_pyplot&#45;&gt;synaptictrack_visualizations_plot_phasespace -->
<g id="edge10" class="edge">
<title>matplotlib_pyplot&#45;&gt;synaptictrack_visualizations_plot_phasespace</title><style>.edge>path:hover{stroke-width:8}</style>
<path fill="none" stroke="black" d="M672.5,-813.24C675.2,-802.93 678.27,-789.45 679.63,-777.26 682.5,-751.65 682.37,-744.9 679.63,-719.28 676.62,-691.02 648.68,-622.42 652.63,-594.28"/>
</g>
<!-- matplotlib_pyplot&#45;&gt;synaptictrack_visualizations_plot_scanner -->
<g id="edge11" class="edge">
<title>matplotlib_pyplot&#45;&gt;synaptictrack_visualizations_plot_scanner</title><style>.edge>path:hover{stroke-width:8}</style>
<path fill="none" stroke="black" d="M632.27,-813.88C617.84,-805.2 602.67,-793.03 594.63,-777.26 557.48,-704.37 640.94,-671.74 614.63,-594.28"/>
<path fill="none" stroke="black" d="M614.63,-592.28C602.49,-557.31 574.62,-556.78 573.63,-519.78"/>
</g>
<!-- numpy -->
<g id="node6" class="node">
<title>numpy</title><style>.edge>path:hover{stroke-width:8}</style>
<ellipse fill="#80f906" stroke="black" cx="896.63" cy="-1184.67" rx="29.37" ry="18"/>
<text text-anchor="middle" x="896.63" y="-1182.17" font-family="Helvetica,sans-Serif" font-size="10.00" fill="#000000">numpy</text>
</g>
<!-- numpy&#45;&gt;matplotlib_gridspec -->
<g id="edge12" class="edge">
<title>numpy&#45;&gt;matplotlib_gridspec</title><style>.edge>path:hover{stroke-width:8}</style>
<path fill="none" stroke="black" d="M896.63,-1129.67C881.08,-1111.98 894.08,-1100.09 896.63,-1076.67"/>
<path fill="none" stroke="black" d="M896.63,-1074.67C900.87,-1035.88 853.5,-1049.97 826.63,-1021.67 816.28,-1010.77 817.9,-1004.67 807.63,-993.68"/>
<path fill="none" stroke="black" d="M807.63,-991.68C780.82,-962.97 742.04,-940.67 712.09,-926.26"/>
<polygon fill="#80f906" stroke="black" points="713.24,-922.93 702.7,-921.86 710.27,-929.27 713.24,-922.93"/>
</g>
<!-- numpy&#45;&gt;matplotlib_pyplot -->
<g id="edge13" class="edge">
<title>numpy&#45;&gt;matplotlib_pyplot</title><style>.edge>path:hover{stroke-width:8}</style>
<path fill="none" stroke="black" d="M807.63,-991.68C782.09,-964.33 821.33,-942.3 807.63,-907.48"/>
<path fill="none" stroke="black" d="M807.63,-905.48C792.69,-867.49 747.82,-848.93 712.86,-840.04"/>
<polygon fill="#80f906" stroke="black" points="713.37,-836.57 702.83,-837.68 711.76,-843.38 713.37,-836.57"/>
</g>
<!-- scipy -->
<g id="node9" class="node">
<title>scipy</title><style>.edge>path:hover{stroke-width:8}</style>
<ellipse fill="#3156c4" stroke="black" cx="58.63" cy="-593.28" rx="27" ry="18"/>
<text text-anchor="middle" x="58.63" y="-590.78" font-family="Helvetica,sans-Serif" font-size="10.00" fill="#ffffff">scipy</text>
</g>
<!-- numpy&#45;&gt;scipy -->
<g id="edge14" class="edge">
<title>numpy&#45;&gt;scipy</title><style>.edge>path:hover{stroke-width:8}</style>
<path fill="none" stroke="black" d="M58.63,-664.28C57.89,-650.25 57.82,-634.61 57.96,-621.68"/>
<polygon fill="#80f906" stroke="black" points="61.47,-621.61 58.13,-611.55 54.47,-621.5 61.47,-621.61"/>
</g>
<!-- synaptictrack_analysis_scanner_analysis -->
<g id="node13" class="node">
<title>synaptictrack_analysis_scanner_analysis</title><style>.edge>path:hover{stroke-width:8}</style>
<polygon fill="blue" stroke="black" points="209.13,-276.28 108.13,-276.28 108.13,-235.28 209.13,-235.28 209.13,-276.28"/>
<text text-anchor="middle" x="158.63" y="-264.28" font-family="Helvetica,sans-Serif" font-size="10.00" fill="white">synaptictrack.</text>
<text text-anchor="middle" x="158.63" y="-253.28" font-family="Helvetica,sans-Serif" font-size="10.00" fill="white">analysis.</text>
<text text-anchor="middle" x="158.63" y="-242.28" font-family="Helvetica,sans-Serif" font-size="10.00" fill="white">scanner_analysis</text>
</g>
<!-- numpy&#45;&gt;synaptictrack_analysis_scanner_analysis -->
<g id="edge15" class="edge">
<title>numpy&#45;&gt;synaptictrack_analysis_scanner_analysis</title><style>.edge>path:hover{stroke-width:8}</style>
<path fill="none" stroke="black" d="M901.87,-1166.84C904.34,-1155.29 905.14,-1140.34 896.63,-1130.67"/>
<path fill="none" stroke="black" d="M896.63,-1129.67C836.7,-1061.53 153.41,-1147.89 80.63,-1093.67 50.76,-1071.41 36.63,-907.63 36.63,-907.48 36.63,-907.48 36.63,-907.48 36.63,-830.26 36.63,-793.49 60.58,-702.99 58.63,-666.28"/>
<path fill="none" stroke="black" d="M58.63,-664.28C55.16,-636.02 31,-638.5 22.63,-611.28 -2.19,-530.56 -12.08,-498.26 22.63,-421.28 37.26,-388.84 81.92,-403.85 82.63,-368.28"/>
<path fill="none" stroke="black" d="M82.63,-366.28C82.42,-333.72 105.4,-303.87 126.15,-283.59"/>
<polygon fill="#80f906" stroke="black" points="128.74,-285.95 133.64,-276.56 123.95,-280.85 128.74,-285.95"/>
</g>
<!-- synaptictrack_beam_twiss -->
<g id="node18" class="node">
<title>synaptictrack_beam_twiss</title><style>.edge>path:hover{stroke-width:8}</style>
<polygon fill="blue" stroke="black" points="850.63,-768.77 764.63,-768.77 764.63,-727.77 850.63,-727.77 850.63,-768.77"/>
<text text-anchor="middle" x="807.63" y="-756.77" font-family="Helvetica,sans-Serif" font-size="10.00" fill="white">synaptictrack.</text>
<text text-anchor="middle" x="807.63" y="-745.77" font-family="Helvetica,sans-Serif" font-size="10.00" fill="white">beam.</text>
<text text-anchor="middle" x="807.63" y="-734.77" font-family="Helvetica,sans-Serif" font-size="10.00" fill="white">twiss</text>
</g>
<!-- numpy&#45;&gt;synaptictrack_beam_twiss -->
<g id="edge16" class="edge">
<title>numpy&#45;&gt;synaptictrack_beam_twiss</title><style>.edge>path:hover{stroke-width:8}</style>
<path fill="none" stroke="black" d="M807.63,-830.26C804.19,-813.47 804.03,-794.31 804.8,-778.85"/>
<polygon fill="#80f906" stroke="black" points="808.3,-779.01 805.46,-768.8 801.31,-778.55 808.3,-779.01"/>
</g>
<!-- synaptictrack_utils_math_functions -->
<g id="node25" class="node">
<title>synaptictrack_utils_math_functions</title><style>.edge>path:hover{stroke-width:8}</style>
<ellipse fill="#7f33cc" stroke="black" cx="1040.63" cy="-992.68" rx="65.11" ry="28.98"/>
<text text-anchor="middle" x="1040.63" y="-1001.18" font-family="Helvetica,sans-Serif" font-size="10.00" fill="#ffffff">synaptictrack.</text>
<text text-anchor="middle" x="1040.63" y="-990.18" font-family="Helvetica,sans-Serif" font-size="10.00" fill="#ffffff">utils.</text>
<text text-anchor="middle" x="1040.63" y="-979.18" font-family="Helvetica,sans-Serif" font-size="10.00" fill="#ffffff">math_functions</text>
</g>
<!-- numpy&#45;&gt;synaptictrack_utils_math_functions -->
<g id="edge17" class="edge">
<title>numpy&#45;&gt;synaptictrack_utils_math_functions</title><style>.edge>path:hover{stroke-width:8}</style>
<path fill="none" stroke="black" d="M896.63,-1074.67C898.84,-1054.5 942.6,-1031.88 981.31,-1015.68"/>
<polygon fill="#80f906" stroke="black" points="983.09,-1018.74 991.01,-1011.71 980.43,-1012.26 983.09,-1018.74"/>
</g>
<!-- synaptictrack_utils_stats -->
<g id="node26" class="node">
<title>synaptictrack_utils_stats</title><style>.edge>path:hover{stroke-width:8}</style>
<ellipse fill="#7f26d9" stroke="black" cx="896.63" cy="-992.68" rx="60.62" ry="28.98"/>
<text text-anchor="middle" x="896.63" y="-1001.18" font-family="Helvetica,sans-Serif" font-size="10.00" fill="#ffffff">synaptictrack.</text>
<text text-anchor="middle" x="896.63" y="-990.18" font-family="Helvetica,sans-Serif" font-size="10.00" fill="#ffffff">utils.</text>
<text text-anchor="middle" x="896.63" y="-979.18" font-family="Helvetica,sans-Serif" font-size="10.00" fill="#ffffff">stats</text>
</g>
<!-- numpy&#45;&gt;synaptictrack_utils_stats -->
<g id="edge18" class="edge">
<title>numpy&#45;&gt;synaptictrack_utils_stats</title><style>.edge>path:hover{stroke-width:8}</style>
<path fill="none" stroke="black" d="M896.63,-1074.67C898.14,-1060.88 898.48,-1045.7 898.34,-1032.24"/>
<polygon fill="#80f906" stroke="black" points="901.83,-1031.8 898.13,-1021.87 894.83,-1031.94 901.83,-1031.8"/>
</g>
<!-- numpy&#45;&gt;synaptictrack_visualizations_plot_phasespace -->
<g id="edge19" class="edge">
<title>numpy&#45;&gt;synaptictrack_visualizations_plot_phasespace</title><style>.edge>path:hover{stroke-width:8}</style>
<path fill="none" stroke="black" d="M807.63,-905.48C795.72,-875.19 814.17,-864.14 807.63,-832.26"/>
<path fill="none" stroke="black" d="M807.63,-830.26C801.01,-797.93 769.68,-807.12 755.63,-777.26 720.83,-703.28 757.39,-673.36 736.63,-594.28"/>
<path fill="none" stroke="black" d="M736.63,-592.28C730.79,-572.79 715.48,-557.05 699.5,-545.27"/>
<polygon fill="#80f906" stroke="black" points="701.34,-542.29 691.13,-539.48 697.36,-548.05 701.34,-542.29"/>
</g>
<!-- numpy&#45;&gt;synaptictrack_visualizations_plot_scanner -->
<g id="edge20" class="edge">
<title>numpy&#45;&gt;synaptictrack_visualizations_plot_scanner</title><style>.edge>path:hover{stroke-width:8}</style>
<path fill="none" stroke="black" d="M736.63,-592.28C727.38,-561.41 758.97,-543 736.63,-519.78"/>
<path fill="none" stroke="black" d="M736.63,-517.78C706.68,-486.63 661.35,-467.27 625.94,-456.04"/>
<polygon fill="#80f906" stroke="black" points="626.82,-452.65 616.23,-453.08 624.78,-459.35 626.82,-452.65"/>
</g>
<!-- pandas -->
<g id="node7" class="node">
<title>pandas</title><style>.edge>path:hover{stroke-width:8}</style>
<ellipse fill="#0cf346" stroke="black" cx="268.63" cy="-992.68" rx="30.72" ry="18"/>
<text text-anchor="middle" x="268.63" y="-990.18" font-family="Helvetica,sans-Serif" font-size="10.00" fill="#000000">pandas</text>
</g>
<!-- pandas&#45;&gt;synaptictrack_analysis_scanner_analysis -->
<g id="edge21" class="edge">
<title>pandas&#45;&gt;synaptictrack_analysis_scanner_analysis</title><style>.edge>path:hover{stroke-width:8}</style>
<path fill="none" stroke="black" d="M268.63,-830.26C269.75,-790.9 217.68,-811.15 197.63,-777.26 138.8,-677.81 133.69,-631.9 161.63,-519.78"/>
</g>
<!-- synaptictrack_beam_beam -->
<g id="node15" class="node">
<title>synaptictrack_beam_beam</title><style>.edge>path:hover{stroke-width:8}</style>
<ellipse fill="#7a31c4" stroke="black" cx="447.63" cy="-748.27" rx="60.62" ry="28.98"/>
<text text-anchor="middle" x="447.63" y="-756.77" font-family="Helvetica,sans-Serif" font-size="10.00" fill="#ffffff">synaptictrack.</text>
<text text-anchor="middle" x="447.63" y="-745.77" font-family="Helvetica,sans-Serif" font-size="10.00" fill="#ffffff">beam.</text>
<text text-anchor="middle" x="447.63" y="-734.77" font-family="Helvetica,sans-Serif" font-size="10.00" fill="#ffffff">beam</text>
</g>
<!-- pandas&#45;&gt;synaptictrack_beam_beam -->
<g id="edge22" class="edge">
<title>pandas&#45;&gt;synaptictrack_beam_beam</title><style>.edge>path:hover{stroke-width:8}</style>
<path fill="none" stroke="black" d="M268.63,-830.26C268.83,-823.38 339.97,-792.97 392.5,-771.44"/>
<polygon fill="#0cf346" stroke="black" points="394.14,-774.55 402.07,-767.53 391.49,-768.07 394.14,-774.55"/>
</g>
<!-- pandas&#45;&gt;synaptictrack_beam_beam_data_io -->
<g id="edge23" class="edge">
<title>pandas&#45;&gt;synaptictrack_beam_beam_data_io</title><style>.edge>path:hover{stroke-width:8}</style>
<path fill="none" stroke="black" d="M268.39,-974.46C268.03,-945.22 267.51,-884.01 268.63,-832.26"/>
<path fill="none" stroke="black" d="M268.63,-830.26C268.66,-829.47 203.65,-796.99 156.25,-773.4"/>
<polygon fill="#0cf346" stroke="black" points="157.54,-770.14 147.03,-768.82 154.42,-776.41 157.54,-770.14"/>
</g>
<!-- synaptictrack_beam_beam_scanner -->
<g id="node17" class="node">
<title>synaptictrack_beam_beam_scanner</title><style>.edge>path:hover{stroke-width:8}</style>
<ellipse fill="#7f26d9" stroke="black" cx="268.63" cy="-748.27" rx="62.45" ry="28.98"/>
<text text-anchor="middle" x="268.63" y="-756.77" font-family="Helvetica,sans-Serif" font-size="10.00" fill="#ffffff">synaptictrack.</text>
<text text-anchor="middle" x="268.63" y="-745.77" font-family="Helvetica,sans-Serif" font-size="10.00" fill="#ffffff">beam.</text>
<text text-anchor="middle" x="268.63" y="-734.77" font-family="Helvetica,sans-Serif" font-size="10.00" fill="#ffffff">beam_scanner</text>
</g>
<!-- pandas&#45;&gt;synaptictrack_beam_beam_scanner -->
<g id="edge24" class="edge">
<title>pandas&#45;&gt;synaptictrack_beam_beam_scanner</title><style>.edge>path:hover{stroke-width:8}</style>
<path fill="none" stroke="black" d="M268.63,-830.26C268.93,-816.4 269,-801.19 268.97,-787.74"/>
<polygon fill="#0cf346" stroke="black" points="272.47,-787.37 268.93,-777.39 265.47,-787.4 272.47,-787.37"/>
</g>
<!-- synaptictrack_cli -->
<g id="node19" class="node">
<title>synaptictrack_cli</title><style>.edge>path:hover{stroke-width:8}</style>
<ellipse fill="#5c3781" stroke="black" cx="157.63" cy="-21.21" rx="60.62" ry="21.43"/>
<text text-anchor="middle" x="157.63" y="-24.21" font-family="Helvetica,sans-Serif" font-size="10.00" fill="#ffffff">synaptictrack.</text>
<text text-anchor="middle" x="157.63" y="-13.21" font-family="Helvetica,sans-Serif" font-size="10.00" fill="#ffffff">cli</text>
</g>
<!-- pandas&#45;&gt;synaptictrack_cli -->
<g id="edge25" class="edge">
<title>pandas&#45;&gt;synaptictrack_cli</title><style>.edge>path:hover{stroke-width:8}</style>
<path fill="none" stroke="black" d="M268.63,-830.26C269.89,-790.9 319.07,-810.84 339.63,-777.26 365.77,-734.59 358.63,-716.32 358.63,-666.28 358.63,-666.28 358.63,-666.28 358.63,-440.78 358.63,-384.11 365.25,-369.56 358.63,-313.28"/>
</g>
<!-- periodictable -->
<g id="node8" class="node">
<title>periodictable</title><style>.edge>path:hover{stroke-width:8}</style>
<ellipse fill="#40bfc0" stroke="black" cx="447.63" cy="-992.68" rx="47.19" ry="18"/>
<text text-anchor="middle" x="447.63" y="-990.18" font-family="Helvetica,sans-Serif" font-size="10.00" fill="#000000">periodictable</text>
</g>
<!-- periodictable&#45;&gt;synaptictrack_beam_beam -->
<g id="edge26" class="edge">
<title>periodictable&#45;&gt;synaptictrack_beam_beam</title><style>.edge>path:hover{stroke-width:8}</style>
<path fill="none" stroke="black" d="M447.63,-974.63C447.63,-936.04 447.63,-841.18 447.63,-787.64"/>
<polygon fill="#40bfc0" stroke="black" points="451.13,-787.52 447.63,-777.52 444.13,-787.52 451.13,-787.52"/>
</g>
<!-- scipy&#45;&gt;synaptictrack_analysis_scanner_analysis -->
<g id="edge27" class="edge">
<title>scipy&#45;&gt;synaptictrack_analysis_scanner_analysis</title><style>.edge>path:hover{stroke-width:8}</style>
<path fill="none" stroke="black" d="M82.9,-584.9C109.75,-575.11 150.69,-554.85 161.63,-519.78"/>
<path fill="none" stroke="black" d="M161.63,-517.78C174.65,-476.05 164.39,-459.2 142.63,-421.28 124.93,-390.42 82.63,-403.86 82.63,-368.28"/>
</g>
<!-- scipy_optimize -->
<g id="node10" class="node">
<title>scipy_optimize</title><style>.edge>path:hover{stroke-width:8}</style>
<ellipse fill="#3d5cb8" stroke="black" cx="82.63" cy="-441.78" rx="50.75" ry="18"/>
<text text-anchor="middle" x="82.63" y="-439.28" font-family="Helvetica,sans-Serif" font-size="10.00" fill="#ffffff">scipy.optimize</text>
</g>
<!-- scipy_optimize&#45;&gt;synaptictrack_analysis_scanner_analysis -->
<g id="edge28" class="edge">
<title>scipy_optimize&#45;&gt;synaptictrack_analysis_scanner_analysis</title><style>.edge>path:hover{stroke-width:8}</style>
<path fill="none" stroke="black" d="M82.63,-423.49C82.63,-408.81 82.63,-387.16 82.63,-368.28"/>
</g>
<!-- synaptictrack -->
<g id="node11" class="node">
<title>synaptictrack</title><style>.edge>path:hover{stroke-width:8}</style>
<polygon fill="blue" stroke="black" points="621.13,-117.64 538.13,-117.64 538.13,-81.64 621.13,-81.64 621.13,-117.64"/>
<text text-anchor="middle" x="579.63" y="-97.14" font-family="Helvetica,sans-Serif" font-size="10.00" fill="white">synaptictrack</text>
</g>
<!-- synaptictrack_analysis -->
<g id="node12" class="node">
<title>synaptictrack_analysis</title><style>.edge>path:hover{stroke-width:8}</style>
<polygon fill="blue" stroke="black" points="220.63,-196.07 134.63,-196.07 134.63,-160.07 220.63,-160.07 220.63,-196.07"/>
<text text-anchor="middle" x="177.63" y="-181.07" font-family="Helvetica,sans-Serif" font-size="10.00" fill="white">synaptictrack.</text>
<text text-anchor="middle" x="177.63" y="-170.07" font-family="Helvetica,sans-Serif" font-size="10.00" fill="white">analysis</text>
</g>
<!-- synaptictrack_analysis&#45;&gt;synaptictrack -->
<g id="edge29" class="edge">
<title>synaptictrack_analysis&#45;&gt;synaptictrack</title><style>.edge>path:hover{stroke-width:8}</style>
<path fill="none" stroke="black" d="M221.04,-166.92C235.8,-163.58 252.41,-159.93 267.63,-156.85 358.98,-138.38 465.98,-119.75 527.97,-109.25"/>
<polygon fill="blue" stroke="black" points="528.61,-112.69 537.89,-107.58 527.45,-105.79 528.61,-112.69"/>
</g>
<!-- synaptictrack_analysis&#45;&gt;synaptictrack_cli -->
<g id="edge30" class="edge">
<title>synaptictrack_analysis&#45;&gt;synaptictrack_cli</title><style>.edge>path:hover{stroke-width:8}</style>
<path fill="none" stroke="black" d="M220.81,-160.85C259.97,-144.77 310.59,-119.82 303.63,-100.64"/>
<path fill="none" stroke="black" d="M303.63,-98.64C291.07,-64 254.2,-44.87 220.65,-34.41"/>
<polygon fill="blue" stroke="black" points="221.42,-30.99 210.84,-31.56 219.47,-37.72 221.42,-30.99"/>
</g>
<!-- synaptictrack_pipeline -->
<g id="node23" class="node">
<title>synaptictrack_pipeline</title><style>.edge>path:hover{stroke-width:8}</style>
<ellipse fill="#7038a8" stroke="black" cx="157.63" cy="-99.64" rx="60.62" ry="21.43"/>
<text text-anchor="middle" x="157.63" y="-102.64" font-family="Helvetica,sans-Serif" font-size="10.00" fill="#ffffff">synaptictrack.</text>
<text text-anchor="middle" x="157.63" y="-91.64" font-family="Helvetica,sans-Serif" font-size="10.00" fill="#ffffff">pipeline</text>
</g>
<!-- synaptictrack_analysis&#45;&gt;synaptictrack_pipeline -->
<g id="edge31" class="edge">
<title>synaptictrack_analysis&#45;&gt;synaptictrack_pipeline</title><style>.edge>path:hover{stroke-width:8}</style>
<path fill="none" stroke="black" d="M173.1,-159.72C170.85,-151.16 168.09,-140.58 165.51,-130.75"/>
<polygon fill="blue" stroke="black" points="168.85,-129.68 162.93,-120.89 162.08,-131.45 168.85,-129.68"/>
</g>
<!-- synaptictrack_analysis_scanner_analysis&#45;&gt;synaptictrack -->
<g id="edge32" class="edge">
<title>synaptictrack_analysis_scanner_analysis&#45;&gt;synaptictrack</title><style>.edge>path:hover{stroke-width:8}</style>
<path fill="none" stroke="black" d="M209.22,-247.52C264.14,-238.01 353.05,-217.79 420.63,-179.07"/>
<path fill="none" stroke="black" d="M420.63,-177.07C431.33,-170.94 429.45,-163.81 439.63,-156.85 466.72,-138.36 500.81,-124.5 528.57,-115.18"/>
<polygon fill="blue" stroke="black" points="529.68,-118.5 538.1,-112.07 527.51,-111.84 529.68,-118.5"/>
</g>
<!-- synaptictrack_analysis_scanner_analysis&#45;&gt;synaptictrack_analysis -->
<g id="edge33" class="edge">
<title>synaptictrack_analysis_scanner_analysis&#45;&gt;synaptictrack_analysis</title><style>.edge>path:hover{stroke-width:8}</style>
<path fill="none" stroke="black" d="M163.63,-234.89C165.82,-226.13 168.44,-215.72 170.81,-206.26"/>
<polygon fill="blue" stroke="black" points="174.22,-207.06 173.26,-196.51 167.43,-205.35 174.22,-207.06"/>
</g>
<!-- synaptictrack_analysis_scanner_analysis&#45;&gt;synaptictrack_cli -->
<g id="edge34" class="edge">
<title>synaptictrack_analysis_scanner_analysis&#45;&gt;synaptictrack_cli</title><style>.edge>path:hover{stroke-width:8}</style>
<path fill="none" stroke="black" d="M115.22,-235.2C94.37,-222.71 72.97,-204.12 68.63,-179.07"/>
<path fill="none" stroke="black" d="M68.63,-177.07C61.03,-133.07 64.59,-116.67 87.63,-78.43 95.34,-65.64 107.07,-54.56 118.74,-45.69"/>
<polygon fill="blue" stroke="black" points="121.1,-48.31 127.17,-39.63 117.01,-42.62 121.1,-48.31"/>
</g>
<!-- synaptictrack_analysis_scanner_analysis&#45;&gt;synaptictrack_pipeline -->
<g id="edge35" class="edge">
<title>synaptictrack_analysis_scanner_analysis&#45;&gt;synaptictrack_pipeline</title><style>.edge>path:hover{stroke-width:8}</style>
<path fill="none" stroke="black" d="M68.63,-177.07C64.28,-151.91 85.54,-133.06 108.36,-120.38"/>
<polygon fill="blue" stroke="black" points="110.21,-123.36 117.47,-115.65 106.99,-117.15 110.21,-123.36"/>
</g>
<!-- synaptictrack_beam -->
<g id="node14" class="node">
<title>synaptictrack_beam</title><style>.edge>path:hover{stroke-width:8}</style>
<polygon fill="blue" stroke="black" points="472.63,-683.28 386.63,-683.28 386.63,-647.28 472.63,-647.28 472.63,-683.28"/>
<text text-anchor="middle" x="429.63" y="-668.28" font-family="Helvetica,sans-Serif" font-size="10.00" fill="white">synaptictrack.</text>
<text text-anchor="middle" x="429.63" y="-657.28" font-family="Helvetica,sans-Serif" font-size="10.00" fill="white">beam</text>
</g>
<!-- synaptictrack_beam&#45;&gt;synaptictrack -->
<g id="edge36" class="edge">
<title>synaptictrack_beam&#45;&gt;synaptictrack</title><style>.edge>path:hover{stroke-width:8}</style>
<path fill="none" stroke="black" d="M462.63,-440.78C449.12,-407 478.96,-397.5 500.63,-368.28"/>
<path fill="none" stroke="black" d="M500.63,-366.28C551.17,-298.16 829.11,-382.14 878.63,-313.28"/>
<path fill="none" stroke="black" d="M878.63,-312.28C919.26,-255.78 906.93,-207.91 859.63,-156.85 829.37,-124.18 703.67,-109.68 631.4,-103.94"/>
<polygon fill="blue" stroke="black" points="631.38,-100.43 621.14,-103.15 630.85,-107.41 631.38,-100.43"/>
</g>
<!-- synaptictrack_beam&#45;&gt;synaptictrack_cli -->
<g id="edge37" class="edge">
<title>synaptictrack_beam&#45;&gt;synaptictrack_cli</title><style>.edge>path:hover{stroke-width:8}</style>
<path fill="none" stroke="black" d="M437.96,-647.2C455.31,-609.08 491.45,-514.79 462.63,-442.78"/>
<path fill="none" stroke="black" d="M462.63,-440.78C431.56,-374.58 336.71,-383.04 358.63,-313.28"/>
<path fill="none" stroke="black" d="M358.63,-312.28C352.33,-242.97 363.21,-222.33 339.63,-156.85 329.58,-128.94 313.75,-128.53 303.63,-100.64"/>
</g>
<!-- synaptictrack_beam&#45;&gt;synaptictrack_pipeline -->
<g id="edge38" class="edge">
<title>synaptictrack_beam&#45;&gt;synaptictrack_pipeline</title><style>.edge>path:hover{stroke-width:8}</style>
<path fill="none" stroke="black" d="M417.99,-646.99C389.51,-604.15 315.31,-489.07 268.63,-385.28 239.82,-321.19 267.13,-286.14 218.63,-235.28 188.05,-203.2 150.69,-235.84 125.63,-199.28 111.03,-177.97 122.85,-149.55 136.07,-128.7"/>
<polygon fill="blue" stroke="black" points="139.06,-130.51 141.74,-120.26 133.25,-126.61 139.06,-130.51"/>
</g>
<!-- synaptictrack_beam&#45;&gt;synaptictrack_visualizations_plot_phasespace -->
<g id="edge39" class="edge">
<title>synaptictrack_beam&#45;&gt;synaptictrack_visualizations_plot_phasespace</title><style>.edge>path:hover{stroke-width:8}</style>
<path fill="none" stroke="black" d="M456.09,-647.14C495.14,-621.83 568.44,-574.34 613.65,-545.04"/>
<polygon fill="blue" stroke="black" points="615.81,-547.81 622.3,-539.44 612,-541.94 615.81,-547.81"/>
</g>
<!-- synaptictrack_beam_beam&#45;&gt;synaptictrack -->
<g id="edge40" class="edge">
<title>synaptictrack_beam_beam&#45;&gt;synaptictrack</title><style>.edge>path:hover{stroke-width:8}</style>
<path fill="none" stroke="black" d="M464.1,-720.33C470.33,-709.18 477.03,-695.93 481.63,-683.28 495.48,-645.28 500.63,-634.73 500.63,-594.28 500.63,-594.28 500.63,-594.28 500.63,-517.78 500.63,-451.33 461.04,-421.64 500.63,-368.28"/>
</g>
<!-- synaptictrack_beam_beam&#45;&gt;synaptictrack_beam -->
<g id="edge41" class="edge">
<title>synaptictrack_beam_beam&#45;&gt;synaptictrack_beam</title><style>.edge>path:hover{stroke-width:8}</style>
<path fill="none" stroke="black" d="M441.44,-719.4C439.58,-711.03 437.54,-701.87 435.69,-693.54"/>
<polygon fill="#7a31c4" stroke="black" points="439.06,-692.57 433.48,-683.57 432.23,-694.09 439.06,-692.57"/>
</g>
<!-- synaptictrack_beam_beam_data_io&#45;&gt;synaptictrack -->
<g id="edge42" class="edge">
<title>synaptictrack_beam_beam_data_io&#45;&gt;synaptictrack</title><style>.edge>path:hover{stroke-width:8}</style>
<path fill="none" stroke="black" d="M118.37,-727.51C146.83,-675.67 227.5,-532.13 307.63,-421.28 335.67,-382.49 443.27,-304.52 446.63,-256.78"/>
<path fill="none" stroke="black" d="M446.63,-254.78C446.89,-219.2 389.76,-196.75 420.63,-179.07"/>
</g>
<!-- synaptictrack_beam_beam_data_io&#45;&gt;synaptictrack_beam -->
<g id="edge43" class="edge">
<title>synaptictrack_beam_beam_data_io&#45;&gt;synaptictrack_beam</title><style>.edge>path:hover{stroke-width:8}</style>
<path fill="none" stroke="black" d="M150.93,-733.07C165.67,-728.42 182.31,-723.41 197.63,-719.28 258.59,-702.86 329.42,-687.16 376.63,-677.17"/>
<polygon fill="blue" stroke="black" points="377.57,-680.55 386.63,-675.07 376.12,-673.7 377.57,-680.55"/>
</g>
<!-- synaptictrack_beam_beam_scanner&#45;&gt;synaptictrack -->
<g id="edge44" class="edge">
<title>synaptictrack_beam_beam_scanner&#45;&gt;synaptictrack</title><style>.edge>path:hover{stroke-width:8}</style>
<path fill="none" stroke="black" d="M275.63,-592.28C236.53,-429.55 456.28,-423.86 446.63,-256.78"/>
</g>
<!-- synaptictrack_beam_beam_scanner&#45;&gt;synaptictrack_beam -->
<g id="edge45" class="edge">
<title>synaptictrack_beam_beam_scanner&#45;&gt;synaptictrack_beam</title><style>.edge>path:hover{stroke-width:8}</style>
<path fill="none" stroke="black" d="M310.1,-726.41C333.54,-714.62 362.81,-699.9 386.52,-687.97"/>
<polygon fill="#7f26d9" stroke="black" points="388.28,-691 395.64,-683.38 385.13,-684.75 388.28,-691"/>
</g>
<!-- synaptictrack_beam_beam_scanner&#45;&gt;synaptictrack_cli -->
<g id="edge46" class="edge">
<title>synaptictrack_beam_beam_scanner&#45;&gt;synaptictrack_cli</title><style>.edge>path:hover{stroke-width:8}</style>
<path fill="none" stroke="black" d="M274.46,-719.21C279.85,-688.2 285.66,-636.99 275.63,-594.28"/>
<path fill="none" stroke="black" d="M275.63,-592.28C256.6,-520.21 199.63,-517.32 199.63,-442.78 199.63,-442.78 199.63,-442.78 199.63,-366.28 199.63,-317.35 246.71,-201.09 267.63,-156.85 280.32,-130.03 313.22,-128.72 303.63,-100.64"/>
</g>
<!-- synaptictrack_beam_twiss&#45;&gt;synaptictrack -->
<g id="edge47" class="edge">
<title>synaptictrack_beam_twiss&#45;&gt;synaptictrack</title><style>.edge>path:hover{stroke-width:8}</style>
<path fill="none" stroke="black" d="M823.75,-727.36C844.69,-699.4 878.63,-646.11 878.63,-594.28 878.63,-594.28 878.63,-594.28 878.63,-517.78 878.63,-451.33 884.22,-434.49 878.63,-368.28"/>
</g>
<!-- synaptictrack_beam_twiss&#45;&gt;synaptictrack_beam -->
<g id="edge48" class="edge">
<title>synaptictrack_beam_twiss&#45;&gt;synaptictrack_beam</title><style>.edge>path:hover{stroke-width:8}</style>
<path fill="none" stroke="black" d="M764.4,-737.74C739.6,-732.3 707.88,-725.36 679.63,-719.28 611.87,-704.69 533.7,-688.17 483.07,-677.5"/>
<polygon fill="blue" stroke="black" points="483.52,-674.02 473.01,-675.39 482.07,-680.87 483.52,-674.02"/>
</g>
<!-- synaptictrack_config -->
<g id="node20" class="node">
<title>synaptictrack_config</title><style>.edge>path:hover{stroke-width:8}</style>
<ellipse fill="#8547c2" stroke="black" cx="509.63" cy="-178.07" rx="60.62" ry="21.43"/>
<text text-anchor="middle" x="509.63" y="-181.07" font-family="Helvetica,sans-Serif" font-size="10.00" fill="#ffffff">synaptictrack.</text>
<text text-anchor="middle" x="509.63" y="-170.07" font-family="Helvetica,sans-Serif" font-size="10.00" fill="#ffffff">config</text>
</g>
<!-- synaptictrack_config&#45;&gt;synaptictrack -->
<g id="edge49" class="edge">
<title>synaptictrack_config&#45;&gt;synaptictrack</title><style>.edge>path:hover{stroke-width:8}</style>
<path fill="none" stroke="black" d="M527.66,-157.38C536.63,-147.59 547.57,-135.64 557.1,-125.25"/>
<polygon fill="#8547c2" stroke="black" points="559.87,-127.4 564.05,-117.66 554.71,-122.67 559.87,-127.4"/>
</g>
<!-- synaptictrack_correction -->
<g id="node21" class="node">
<title>synaptictrack_correction</title><style>.edge>path:hover{stroke-width:8}</style>
<ellipse fill="#8547c2" stroke="black" cx="649.63" cy="-178.07" rx="60.62" ry="21.43"/>
<text text-anchor="middle" x="649.63" y="-181.07" font-family="Helvetica,sans-Serif" font-size="10.00" fill="#ffffff">synaptictrack.</text>
<text text-anchor="middle" x="649.63" y="-170.07" font-family="Helvetica,sans-Serif" font-size="10.00" fill="#ffffff">correction</text>
</g>
<!-- synaptictrack_correction&#45;&gt;synaptictrack -->
<g id="edge50" class="edge">
<title>synaptictrack_correction&#45;&gt;synaptictrack</title><style>.edge>path:hover{stroke-width:8}</style>
<path fill="none" stroke="black" d="M631.61,-157.38C622.63,-147.59 611.7,-135.64 602.17,-125.25"/>
<polygon fill="#8547c2" stroke="black" points="604.56,-122.67 595.22,-117.66 599.4,-127.4 604.56,-122.67"/>
</g>
<!-- synaptictrack_ml -->
<g id="node22" class="node">
<title>synaptictrack_ml</title><style>.edge>path:hover{stroke-width:8}</style>
<ellipse fill="#8547c2" stroke="black" cx="789.63" cy="-178.07" rx="60.62" ry="21.43"/>
<text text-anchor="middle" x="789.63" y="-181.07" font-family="Helvetica,sans-Serif" font-size="10.00" fill="#ffffff">synaptictrack.</text>
<text text-anchor="middle" x="789.63" y="-170.07" font-family="Helvetica,sans-Serif" font-size="10.00" fill="#ffffff">ml</text>
</g>
<!-- synaptictrack_ml&#45;&gt;synaptictrack -->
<g id="edge51" class="edge">
<title>synaptictrack_ml&#45;&gt;synaptictrack</title><style>.edge>path:hover{stroke-width:8}</style>
<path fill="none" stroke="black" d="M748.9,-162.24C715.17,-149.97 667.08,-132.46 630.77,-119.25"/>
<polygon fill="#8547c2" stroke="black" points="631.93,-115.95 621.34,-115.82 629.54,-122.53 631.93,-115.95"/>
</g>
<!-- synaptictrack_pipeline&#45;&gt;synaptictrack_cli -->
<g id="edge52" class="edge">
<title>synaptictrack_pipeline&#45;&gt;synaptictrack_cli</title><style>.edge>path:hover{stroke-width:8}</style>
<path fill="none" stroke="black" d="M157.63,-78.16C157.63,-70.3 157.63,-61.16 157.63,-52.57"/>
<polygon fill="#7038a8" stroke="black" points="161.13,-52.49 157.63,-42.49 154.13,-52.49 161.13,-52.49"/>
</g>
<!-- synaptictrack_utils -->
<g id="node24" class="node">
<title>synaptictrack_utils</title><style>.edge>path:hover{stroke-width:8}</style>
<ellipse fill="#7a18dd" stroke="black" cx="954.63" cy="-906.48" rx="60.62" ry="21.43"/>
<text text-anchor="middle" x="954.63" y="-909.48" font-family="Helvetica,sans-Serif" font-size="10.00" fill="#ffffff">synaptictrack.</text>
<text text-anchor="middle" x="954.63" y="-898.48" font-family="Helvetica,sans-Serif" font-size="10.00" fill="#ffffff">utils</text>
</g>
<!-- synaptictrack_utils&#45;&gt;synaptictrack -->
<g id="edge53" class="edge">
<title>synaptictrack_utils&#45;&gt;synaptictrack</title><style>.edge>path:hover{stroke-width:8}</style>
<path fill="none" stroke="black" d="M954.63,-517.78C949.11,-484.91 967.54,-473.51 954.63,-442.78"/>
</g>
<!-- synaptictrack_utils&#45;&gt;synaptictrack_analysis_scanner_analysis -->
<g id="edge54" class="edge">
<title>synaptictrack_utils&#45;&gt;synaptictrack_analysis_scanner_analysis</title><style>.edge>path:hover{stroke-width:8}</style>
<path fill="none" stroke="black" d="M954.63,-830.26C911.29,-699.25 971.29,-656.76 954.63,-519.78"/>
<path fill="none" stroke="black" d="M954.63,-517.78C951.6,-494.12 842.33,-361.14 821.63,-349.28 769.8,-319.56 373.4,-277.9 219.47,-262.66"/>
<polygon fill="#7a18dd" stroke="black" points="219.55,-259.15 209.25,-261.65 218.86,-266.11 219.55,-259.15"/>
</g>
<!-- synaptictrack_utils&#45;&gt;synaptictrack_beam_twiss -->
<g id="edge55" class="edge">
<title>synaptictrack_utils&#45;&gt;synaptictrack_beam_twiss</title><style>.edge>path:hover{stroke-width:8}</style>
<path fill="none" stroke="black" d="M958.43,-885.2C960.36,-870.09 961.13,-849.24 954.63,-832.26"/>
<path fill="none" stroke="black" d="M954.63,-830.26C949.97,-818.05 941.79,-820.07 930.63,-813.26 916.91,-804.89 884.04,-787.84 855.72,-773.44"/>
<polygon fill="#7a18dd" stroke="black" points="857.22,-770.28 846.72,-768.87 854.05,-776.52 857.22,-770.28"/>
</g>
<!-- synaptictrack_utils&#45;&gt;synaptictrack_visualizations_plot_scanner -->
<g id="edge56" class="edge">
<title>synaptictrack_utils&#45;&gt;synaptictrack_visualizations_plot_scanner</title><style>.edge>path:hover{stroke-width:8}</style>
<path fill="none" stroke="black" d="M954.63,-830.26C894.42,-672.77 844.06,-649.74 736.63,-519.78"/>
</g>
<!-- synaptictrack_utils_math_functions&#45;&gt;synaptictrack -->
<g id="edge57" class="edge">
<title>synaptictrack_utils_math_functions&#45;&gt;synaptictrack</title><style>.edge>path:hover{stroke-width:8}</style>
<path fill="none" stroke="black" d="M1041.62,-963.54C1043.45,-879.84 1040.98,-626.81 954.63,-442.78"/>
</g>
<!-- synaptictrack_utils_math_functions&#45;&gt;synaptictrack_utils -->
<g id="edge58" class="edge">
<title>synaptictrack_utils_math_functions&#45;&gt;synaptictrack_utils</title><style>.edge>path:hover{stroke-width:8}</style>
<path fill="none" stroke="black" d="M1014.36,-965.96C1003.95,-955.76 991.98,-944.05 981.51,-933.79"/>
<polygon fill="#7f33cc" stroke="black" points="983.79,-931.12 974.19,-926.63 978.89,-936.12 983.79,-931.12"/>
</g>
<!-- synaptictrack_utils_stats&#45;&gt;synaptictrack -->
<g id="edge59" class="edge">
<title>synaptictrack_utils_stats&#45;&gt;synaptictrack</title><style>.edge>path:hover{stroke-width:8}</style>
<path fill="none" stroke="black" d="M916.63,-830.26C910.94,-757.6 916.63,-739.16 916.63,-666.28 916.63,-666.28 916.63,-666.28 916.63,-592.28 916.63,-591.74 954.84,-443.27 954.63,-442.78"/>
<path fill="none" stroke="black" d="M954.63,-440.78C934.8,-398.52 882.66,-414.79 878.63,-368.28"/>
</g>
<!-- synaptictrack_utils_stats&#45;&gt;synaptictrack_beam_twiss -->
<g id="edge60" class="edge">
<title>synaptictrack_utils_stats&#45;&gt;synaptictrack_beam_twiss</title><style>.edge>path:hover{stroke-width:8}</style>
<path fill="none" stroke="black" d="M887.74,-963.66C882.21,-941.92 877.4,-911.23 884.63,-885.26 892.02,-858.75 916.43,-859.78 916.63,-832.26"/>
<path fill="none" stroke="black" d="M916.63,-830.26C915.34,-813.81 882.86,-791.12 853.69,-773.95"/>
<polygon fill="#7f26d9" stroke="black" points="855.19,-770.77 844.78,-768.81 851.69,-776.84 855.19,-770.77"/>
</g>
<!-- synaptictrack_utils_stats&#45;&gt;synaptictrack_utils -->
<g id="edge61" class="edge">
<title>synaptictrack_utils_stats&#45;&gt;synaptictrack_utils</title><style>.edge>path:hover{stroke-width:8}</style>
<path fill="none" stroke="black" d="M914.99,-965.04C921.44,-955.67 928.71,-945.11 935.25,-935.62"/>
<polygon fill="#7f26d9" stroke="black" points="938.21,-937.49 941,-927.27 932.44,-933.52 938.21,-937.49"/>
</g>
<!-- synaptictrack_visualizations -->
<g id="node27" class="node">
<title>synaptictrack_visualizations</title><style>.edge>path:hover{stroke-width:8}</style>
<polygon fill="blue" stroke="black" points="812.63,-385.28 726.63,-385.28 726.63,-349.28 812.63,-349.28 812.63,-385.28"/>
<text text-anchor="middle" x="769.63" y="-370.28" font-family="Helvetica,sans-Serif" font-size="10.00" fill="white">synaptictrack.</text>
<text text-anchor="middle" x="769.63" y="-359.28" font-family="Helvetica,sans-Serif" font-size="10.00" fill="white">visualizations</text>
</g>
<!-- synaptictrack_visualizations&#45;&gt;synaptictrack -->
<g id="edge62" class="edge">
<title>synaptictrack_visualizations&#45;&gt;synaptictrack</title><style>.edge>path:hover{stroke-width:8}</style>
<path fill="none" stroke="black" d="M812.89,-356C836.08,-348.19 863.03,-334.98 878.63,-313.28"/>
</g>
<!-- synaptictrack_visualizations&#45;&gt;synaptictrack_analysis_scanner_analysis -->
<g id="edge63" class="edge">
<title>synaptictrack_visualizations&#45;&gt;synaptictrack_analysis_scanner_analysis</title><style>.edge>path:hover{stroke-width:8}</style>
<path fill="none" stroke="black" d="M726.4,-363.34C649.12,-357.54 482.46,-342.58 344.63,-313.28 302.09,-304.23 255.24,-289.98 219.2,-278.05"/>
<polygon fill="blue" stroke="black" points="219.93,-274.6 209.34,-274.75 217.71,-281.24 219.93,-274.6"/>
</g>
<!-- synaptictrack_visualizations_plot_phasespace&#45;&gt;synaptictrack -->
<g id="edge64" class="edge">
<title>synaptictrack_visualizations_plot_phasespace&#45;&gt;synaptictrack</title><style>.edge>path:hover{stroke-width:8}</style>
<path fill="none" stroke="black" d="M840.63,-440.78C857.5,-408.54 881.69,-404.53 878.63,-368.28"/>
<path fill="none" stroke="black" d="M878.63,-366.28C876.65,-342.81 864.88,-332.4 878.63,-313.28"/>
</g>
<!-- synaptictrack_visualizations_plot_phasespace&#45;&gt;synaptictrack_visualizations -->
<g id="edge65" class="edge">
<title>synaptictrack_visualizations_plot_phasespace&#45;&gt;synaptictrack_visualizations</title><style>.edge>path:hover{stroke-width:8}</style>
<path fill="none" stroke="black" d="M702,-514.96C748.48,-509.23 814.73,-492.29 840.63,-442.78"/>
<path fill="none" stroke="black" d="M840.63,-440.78C850.78,-421.38 834.35,-403.74 814.76,-390.71"/>
<polygon fill="blue" stroke="black" points="816.57,-387.72 806.23,-385.42 812.88,-393.67 816.57,-387.72"/>
</g>
<!-- synaptictrack_visualizations_plot_phasespace&#45;&gt;synaptictrack_visualizations_plot_scanner -->
<g id="edge66" class="edge">
<title>synaptictrack_visualizations_plot_phasespace&#45;&gt;synaptictrack_visualizations_plot_scanner</title><style>.edge>path:hover{stroke-width:8}</style>
<path fill="none" stroke="black" d="M631.62,-498.07C622.24,-489.29 611.07,-478.81 600.97,-469.35"/>
<polygon fill="blue" stroke="black" points="603.2,-466.64 593.51,-462.35 598.41,-471.75 603.2,-466.64"/>
</g>
<!-- synaptictrack_visualizations_plot_scanner&#45;&gt;synaptictrack -->
<g id="edge67" class="edge">
<title>synaptictrack_visualizations_plot_scanner&#45;&gt;synaptictrack</title><style>.edge>path:hover{stroke-width:8}</style>
<path fill="none" stroke="black" d="M531.29,-421.15C507.95,-407.33 486.1,-387.87 500.63,-368.28"/>
</g>
<!-- synaptictrack_visualizations_plot_scanner&#45;&gt;synaptictrack_visualizations -->
<g id="edge68" class="edge">
<title>synaptictrack_visualizations_plot_scanner&#45;&gt;synaptictrack_visualizations</title><style>.edge>path:hover{stroke-width:8}</style>
<path fill="none" stroke="black" d="M616.35,-424.69C646.04,-413.76 685.47,-399.25 716.9,-387.69"/>
<polygon fill="blue" stroke="black" points="718.2,-390.94 726.37,-384.2 715.78,-384.37 718.2,-390.94"/>
</g>
<!-- typer -->
<g id="node30" class="node">
<title>typer</title><style>.edge>path:hover{stroke-width:8}</style>
<ellipse fill="#c0409f" stroke="black" cx="303.63" cy="-178.07" rx="27" ry="18"/>
<text text-anchor="middle" x="303.63" y="-175.57" font-family="Helvetica,sans-Serif" font-size="10.00" fill="#ffffff">typer</text>
</g>
<!-- typer&#45;&gt;synaptictrack_cli -->
<g id="edge69" class="edge">
<title>typer&#45;&gt;synaptictrack_cli</title><style>.edge>path:hover{stroke-width:8}</style>
<path fill="none" stroke="black" d="M306.87,-160.1C309.15,-144.22 310.69,-120.1 303.63,-100.64"/>
</g>
</g>
</svg>
